<svg xmlns="http://www.w3.org/2000/svg" viewBox="0 0 50 50"><g style="opacity:0.9"><path d="M46.49,27.21V38.54a8,8,0,0,1-8,8H11.46a8,8,0,0,1-8-8V11.46a8,8,0,0,1,8-8H23.27A1.75,1.75,0,0,0,25,1.76h0A1.75,1.75,0,0,0,23.27,0H11.46A11.46,11.46,0,0,0,0,11.46V38.54A11.46,11.46,0,0,0,11.46,50H38.54A11.46,11.46,0,0,0,50,38.54V27.21a1.75,1.75,0,0,0-1.76-1.75h0A1.75,1.75,0,0,0,46.49,27.21Z" style="fill:#707070"/><path d="M50,17V0H33l7.25,7.25L24.38,23.13a1.77,1.77,0,0,0,0,2.49,1.75,1.75,0,0,0,1.24.51,1.79,1.79,0,0,0,1.25-.51L42.75,9.73Z" style="fill:#707070"/></g></svg>