<svg xmlns="http://www.w3.org/2000/svg" viewBox="0 0 101.75 52.44"><g style="opacity:0.9"><path d="M89.75,52.44H12a12,12,0,0,1-12-12V12A12,12,0,0,1,12,0H89.75a12,12,0,0,1,12,12V40.44A12,12,0,0,1,89.75,52.44ZM12,3.43A8.59,8.59,0,0,0,3.43,12V40.44A8.58,8.58,0,0,0,12,49H89.75a8.57,8.57,0,0,0,8.56-8.56V12a8.58,8.58,0,0,0-8.56-8.57Z" style="fill:#707070"/></g><g style="opacity:0.9"><path d="M28.49,29.23h-4v9.08H18.85V14.13h9.23c4.93,0,8.78,1.68,8.78,7.44S33.35,29.23,28.49,29.23ZM28,18.5H24.53v6.36h3.66c1.38,0,2.91-.75,2.91-3.29C31.1,18.5,29.24,18.5,28,18.5Z" style="fill:#707070"/><path d="M51,38.31H42.09V14.13H51c7.55,0,11.55,3.14,11.55,12S58.8,38.31,51,38.31ZM51,18.5H47.77V33.94h3.52c2.76,0,5.34-.68,5.34-7.78C56.63,18.5,53.38,18.5,51,18.5Z" style="fill:#707070"/><path d="M73.75,18.54v5.23h8.7v4.34h-8.7v10.2H68.07V14.13H82.9v4.41Z" style="fill:#707070"/></g></svg>