<svg xmlns="http://www.w3.org/2000/svg" viewBox="0 0 65 64.92"
  aria-labelledby="icon-social-linkedin-title icon-social-linkedin-desc" role="img">
  <title id="icon-social-linkedin-title">LinkedIn</title>
  <desc id="icon-social-linkedin-desc">Connect on LinkedIn</desc>

  <g>
    <path class="icon-social-linkedin"
      d="M65,63.62c-.06-8.52-.06-17-.13-25.5a28,28,0,0,0-1.1-7.68c-1.11-3.83-3.13-7-6.9-8.58a19,19,0,0,0-12.29-1A14.51,14.51,0,0,0,36,26.93V22.31c0-.71-.2-1-.91-1H23.81c-.72,0-1,.19-1,.91V63.88c0,.71.26.91.91.91H35.58c.72,0,.91-.2.91-.91,0-6.57-.06-13.21,0-19.78a40.14,40.14,0,0,1,.33-4.88,8,8,0,0,1,2-4.74c1.56-1.76,3.65-2.15,5.92-2.09,3.13.07,5.08,1.5,5.92,4.49a19.87,19.87,0,0,1,.65,5.86v21c0,1,0,1,1,1H63.81C65,64.79,65.05,64.79,65,63.62Z" />
    <path class="icon-social-linkedin"
      d="M13.73,21.4H2c-.71,0-1,.2-1,1V63.94c0,.78.26,1,1,1H13.73c.71,0,1-.2,1-1V22.38C14.7,21.6,14.51,21.4,13.73,21.4Z" />
    <path class="icon-social-linkedin"
      d="M7.87,0A7.81,7.81,0,0,0,0,7.87a8,8,0,0,0,7.87,7.94,7.85,7.85,0,0,0,7.94-7.94A7.72,7.72,0,0,0,7.87,0Z" />
  </g>
</svg>