<svg xmlns="http://www.w3.org/2000/svg" viewBox="0 0 65 60.11"
  aria-labelledby="icon-social-gitlab-title icon-social-gitlab-desc" role="img">
  <title id="icon-social-gitlab-title">GitLab</title>
  <desc id="icon-social-gitlab-desc">Follow on GitLab</desc>
  <path class="icon-social-gitlab"
    d="M64.81,33.67,61.35,23h0L54.48,1.85A2.71,2.71,0,0,0,51.88,0a2.66,2.66,0,0,0-2.56,1.87L42.8,22H22.22L15.68,1.87A2.66,2.66,0,0,0,13.12,0h0a2.73,2.73,0,0,0-2.59,1.87L3.67,23h0L.19,33.67A3.89,3.89,0,0,0,1.6,38l30,21.79h0l0,0,0,0h0l.14.09h.07l.08,0L32,60h.07l.11,0h.11l.22,0h0l.21,0h.12l.11,0H33l.08,0,.08,0h.07l.14-.09h0L63.4,38A3.89,3.89,0,0,0,64.81,33.67ZM51.9,3.83,57.78,22H46ZM56.75,25l-2.4,3.08L36.64,50.77,45,25ZM31,59.05Zm-2.68-8.28L8.26,25H20ZM13.1,3.83,19,22H7.23ZM3.4,35.54a.82.82,0,0,1-.3-.92l2.59-7.93L24.61,51ZM31.55,59.77h0l0,0-.06-.06h0l.14.12h0Zm.95-6.15L27.58,38.46,23.21,25H41.8Zm1,6.11,0,0h0l0,0h0l.14-.12h0ZM61.6,35.54,40.4,50.94,59.32,26.69l2.58,7.92A.83.83,0,0,1,61.6,35.54Z" />
</svg>