<svg xmlns="http://www.w3.org/2000/svg" viewBox="0 0 65 52.79"
  aria-labelledby="icon-social-twitter-title icon-social-twitter-desc" role="img">
  <title id="icon-social-twitter-title">Twitter</title>
  <desc id="icon-social-twitter-desc">Follow on Twitter</desc>
  </defs>
  <path class="icon-social-twitter"
    d="M20.52,52.79c24.48,0,37.92-20.32,37.92-37.92a17.06,17.06,0,0,0-.06-1.75A26.77,26.77,0,0,0,65,6.23a27.11,27.11,0,0,1-7.66,2.08A13.37,13.37,0,0,0,63.18,1a27.49,27.49,0,0,1-8.44,3.25,13.32,13.32,0,0,0-23,9.09,16,16,0,0,0,.32,3A37.83,37.83,0,0,1,4.55,2.47,13.05,13.05,0,0,0,2.73,9.16a13.34,13.34,0,0,0,5.91,11.1,12.81,12.81,0,0,1-6-1.69v.2A13.37,13.37,0,0,0,13.31,31.82a12.49,12.49,0,0,1-3.5.45A11,11,0,0,1,7.27,32a13.21,13.21,0,0,0,12.47,9.22A26.79,26.79,0,0,1,3.18,47,25.37,25.37,0,0,1,0,46.75a38,38,0,0,0,20.52,6" />
</svg>