<svg xmlns="http://www.w3.org/2000/svg" width="315.12" height="315.12" viewBox="0 0 315.12 315.12">
  <defs>
    <style>
      .a {
        fill: lime;
      }

      .a, .b, .c {
        stroke: #000;
        stroke-miterlimit: 10;
      }

      .a, .b {
        stroke-width: 15.12px;
      }

      .b {
        fill: #f0f;
      }

      .c {
        fill: #fff200;
        stroke-width: 1.21px;
      }
    </style>
  </defs>
  <g>
    <path class="a" d="M125.89,66.18S27.14,31.85,44.44,118.35s-44.69,77.58-36,118.78,157.86-30.21,188.14,5.49,131.18,1.7,80-59.57,20.9-91.87-7.93-123.59S197.25,86.77,125.89,66.18Z"/>
    <path class="b" d="M71.49,102.08s-98.21,35.72-25.62,90.26,19.63,86.49,54.51,112.2,98.44-121.35,145.87-113.29,100.26-80.6,19.45-94.93-47.43-82.44-91-88.4S139.56,73.09,71.49,102.08Z"/>
    <path class="c" d="M103.9,124.61l6.8-12.55c4.65-8.56,17.58-8.33,21.9.39l6.31,12.77a12.19,12.19,0,0,0,9.07,6.52L162.61,134c10,1.56,13.76,13.35,6.39,19.95l-10.81,9.67a11.35,11.35,0,0,0-3.71,10.23l2.24,14c1.53,9.53-9.08,16.59-17.95,11.95l-13-6.8a12.78,12.78,0,0,0-11.36-.2l-13.25,6.35c-9,4.32-19.37-3.1-17.48-12.57l2.77-13.87a11.25,11.25,0,0,0-3.31-10.36l-10.42-10c-7.12-6.85-2.9-18.5,7.14-19.71l14.71-1.78A12.23,12.23,0,0,0,103.9,124.61Z"/>
  </g>
</svg>
