<svg xmlns="http://www.w3.org/2000/svg" viewBox="0 0 89.34 52.44"><g style="opacity:0.9"><path d="M78.8,52.44H10.53C4.72,52.44,0,47.06,0,40.44V12C0,5.38,4.72,0,10.53,0H78.8c5.81,0,10.54,5.38,10.54,12V40.44C89.34,47.06,84.61,52.44,78.8,52.44Zm-68.27-49C6.39,3.43,3,7.28,3,12V40.44C3,45.16,6.39,49,10.53,49H78.8c4.15,0,7.52-3.84,7.52-8.56V12c0-4.72-3.37-8.57-7.52-8.57Z" style="fill:#707070"/></g><g style="opacity:0.9"><path d="M24.41,33.9H36.15v4.41H19.63l-1.42-4.56L30.32,18.54H19.59V14.13H35l1.42,4.56Z" style="fill:#707070"/><path d="M41,38.31V14.13h5.68V38.31Z" style="fill:#707070"/><path d="M62.76,29.23h-4v9.08H53.12V14.13h9.23c4.93,0,8.78,1.68,8.78,7.44S67.62,29.23,62.76,29.23ZM62.27,18.5H58.8v6.36h3.66c1.38,0,2.91-.75,2.91-3.29C65.37,18.5,63.5,18.5,62.27,18.5Z" style="fill:#707070"/></g></svg>