<svg xmlns="http://www.w3.org/2000/svg" viewBox="0 0 65.9 46.57"><path d="M64.36,4.09A9.1,9.1,0,0,0,56.78,0H9.12A9.12,9.12,0,0,0,1.53,4.1,9.32,9.32,0,0,0,0,9.23V37.34a9.18,9.18,0,0,0,9.12,9.23H56.78a9.18,9.18,0,0,0,9.12-9.23V9.23A9.31,9.31,0,0,0,64.36,4.09ZM9.12,3.91H56.78a5.23,5.23,0,0,1,3.6,1.45L35.05,31.76a3,3,0,0,1-4.2,0L5.52,5.36A5.23,5.23,0,0,1,9.12,3.91ZM62,37.34a5.3,5.3,0,0,1-5.25,5.32H9.12a5.29,5.29,0,0,1-5.25-5.32V9.23A5.35,5.35,0,0,1,4,8.34L28.56,34a6,6,0,0,0,8.78,0L62,8.34a5.35,5.35,0,0,1,.08.89Z" style="fill:#707070;opacity:0.9"/></svg>